<svg class="main-svg" xmlns="http://www.w3.org/2000/svg" xmlns:xlink="http://www.w3.org/1999/xlink" width="700" height="500" viewBox="0 0 700 500"><rect x="0" y="0" width="700" height="500" style="fill: rgb(255, 255, 255); fill-opacity: 1;"/><defs id="defs-0a938c"><g class="clips"/><g class="gradients"/><g class="patterns"/></defs><g class="bglayer"/><g class="layer-below"><g class="imagelayer"/><g class="shapelayer"/></g><g class="cartesianlayer"/><g class="polarlayer"/><g class="ternarylayer"/><g class="geolayer"/><g class="funnelarealayer"/><g class="pielayer"/><g class="iciclelayer"/><g class="treemaplayer"/><g class="sunburstlayer"><g class="trace sunburst" stroke-linejoin="round" style="opacity: 1;"><g class="slice cursor-pointer"><path class="surface" d="M350,240L386,240A36,36 0,1,0 384.07862271471794,251.6037698127768L350,240A0,0 0,1,1 350,240Z" style="pointer-events: all; stroke-width: 1; fill: rgb(99, 110, 250); fill-opacity: 1; stroke: rgb(255, 255, 255); stroke-opacity: 1;"/><g class="slicetext"><text data-notex="1" class="slicetext" text-anchor="middle" x="0" y="0" style="font-family: 'Open Sans', verdana, arial, sans-serif; font-size: 12px; fill: rgb(255, 255, 255); fill-opacity: 1; white-space: pre;" transform="translate(344.5664013035921,239.30419603816654)scale(0.5364373320636937)rotate(-80.59814658803703)">OU=LUXNAComputers</text></g></g><g class="slice cursor-pointer"><path class="surface" d="M350,240L384.07862271471794,251.6037698127768A36,36 0,0,0 385.7984489172866,243.80408400491154L350,240A0,0 0,0,1 350,240Z" style="pointer-events: all; stroke-width: 1; fill: rgb(239, 85, 59); fill-opacity: 1; stroke: rgb(255, 255, 255); stroke-opacity: 1;"/><g class="slicetext"><text data-notex="1" class="slicetext" text-anchor="middle" x="0" y="0" style="font-family: 'Open Sans', verdana, arial, sans-serif; font-size: 12px; fill: rgb(68, 68, 68); fill-opacity: 1; white-space: pre;" transform="translate(377.0392952655038,247.11308114978982)scale(0.24976303446855183)rotate(12.434709351305798)">OU=_HP</text></g></g><g class="slice cursor-pointer"><path class="surface" d="M350,240L385.7984489172866,243.80408400491154A36,36 0,0,0 386,240L350,240A0,0 0,0,1 350,240Z" style="pointer-events: all; stroke-width: 1; fill: rgb(0, 204, 150); fill-opacity: 1; stroke: rgb(255, 255, 255); stroke-opacity: 1;"/><g class="slicetext"><text data-notex="1" class="slicetext" text-anchor="middle" x="0" y="0" style="font-family: 'Open Sans', verdana, arial, sans-serif; font-size: 12px; fill: rgb(68, 68, 68); fill-opacity: 1; white-space: pre;" transform="translate(377.7877722493296,241.99780655951147)scale(0.11662134547515685)rotate(3.0328559393428804)">OU=LUXNAServers</text></g></g><g class="slice cursor-pointer"><path class="surface" d="M386,240L422,240A72,72 0,1,0 294.02351143051493,285.2839124571885L322.0117557152575,262.6419562285942A36,36 0,1,1 386,240Z" style="pointer-events: all; stroke-width: 1; fill: rgb(99, 110, 250); fill-opacity: 1; stroke: rgb(255, 255, 255); stroke-opacity: 1;"/><g class="slicetext"><text data-notex="1" class="slicetext" text-anchor="middle" x="0" y="0" style="font-family: 'Open Sans', verdana, arial, sans-serif; font-size: 12px; fill: rgb(255, 255, 255); fill-opacity: 1; white-space: pre;" transform="translate(335.43818201436324,198.87038753561927)rotate(-19.48609941027803)">OU=CVG</text></g></g><g class="slice cursor-pointer"><path class="surface" d="M322.0117557152575,262.6419562285942L294.02351143051493,285.2839124571885A72,72 0,0,0 395.9473648515924,295.4332000086108L372.9736824257962,267.7166000043054A36,36 0,0,1 322.0117557152575,262.6419562285942Z" style="pointer-events: all; stroke-width: 1; fill: rgb(99, 110, 250); fill-opacity: 1; stroke: rgb(255, 255, 255); stroke-opacity: 1;"/><g class="slicetext"><text data-notex="1" class="slicetext" text-anchor="middle" x="0" y="0" style="font-family: 'Open Sans', verdana, arial, sans-serif; font-size: 12px; fill: rgb(255, 255, 255); fill-opacity: 1; white-space: pre;" transform="translate(344.41075035643934,294.3952527605283)rotate(5.686604886267901)">OU=ATL</text></g></g><g class="slice cursor-pointer"><path class="surface" d="M372.9736824257962,267.7166000043054L395.9473648515924,295.4332000086108A72,72 0,0,0 412.2423720212472,276.19236280168326L381.1211860106236,258.0961814008416A36,36 0,0,1 372.9736824257962,267.7166000043054Z" style="pointer-events: all; stroke-width: 1; fill: rgb(99, 110, 250); fill-opacity: 1; stroke: rgb(255, 255, 255); stroke-opacity: 1;"/><g class="slicetext"><text data-notex="1" class="slicetext" text-anchor="middle" x="0" y="0" style="font-family: 'Open Sans', verdana, arial, sans-serif; font-size: 12px; fill: rgb(255, 255, 255); fill-opacity: 1; white-space: pre;" transform="translate(389.42228307162287,276.8741245042459)scale(0.5914095492524206)rotate(40.26116259477675)">OU=CMH</text></g></g><g class="slice cursor-pointer"><path class="surface" d="M381.1211860106236,258.0961814008416L412.2423720212472,276.19236280168326A72,72 0,0,0 417.31857014407024,265.5384046831022L383.6592850720351,252.7692023415511A36,36 0,0,1 381.1211860106236,258.0961814008416Z" style="pointer-events: all; stroke-width: 1; fill: rgb(99, 110, 250); fill-opacity: 1; stroke: rgb(255, 255, 255); stroke-opacity: 1;"/><g class="slicetext"><text data-notex="1" class="slicetext" text-anchor="middle" x="0" y="0" style="font-family: 'Open Sans', verdana, arial, sans-serif; font-size: 12px; fill: rgb(255, 255, 255); fill-opacity: 1; white-space: pre;" transform="translate(401.68059501809273,266.85343264430185)scale(0.4472967145308055)rotate(25.475989890480264)">OU=Field</text></g></g><g class="slice cursor-pointer"><path class="surface" d="M383.6592850720351,252.7692023415511L417.31857014407024,265.5384046831022A72,72 0,0,0 418.0334459274433,263.5679917523247L384.0167229637217,251.78399587616235A36,36 0,0,1 383.6592850720351,252.7692023415511Z" style="pointer-events: all; stroke-width: 1; fill: rgb(99, 110, 250); fill-opacity: 1; stroke: rgb(255, 255, 255); stroke-opacity: 1;"/><g class="slicetext"><text data-notex="1" class="slicetext" text-anchor="middle" x="0" y="0" style="font-family: 'Open Sans', verdana, arial, sans-serif; font-size: 12px; fill: rgb(255, 255, 255); fill-opacity: 1; white-space: pre;" transform="translate(414.35238024127017,263.9038751837984)scale(0.11625336964211071)rotate(19.941027801179473)">OU=DAL</text></g></g><g class="slice"><path class="surface" d="M384.0167229637217,251.78399587616235L418.0334459274433,263.5679917523247A72,72 0,0,0 418.1572454294359,263.2075396255536L384.07862271471794,251.6037698127768A36,36 0,0,1 384.0167229637217,251.78399587616235Z" style="pointer-events: all; stroke-width: 1; fill: rgb(99, 110, 250); fill-opacity: 1; stroke: rgb(255, 255, 255); stroke-opacity: 1; opacity: 0.7;"/><g class="slicetext"><text data-notex="1" class="slicetext" text-anchor="middle" x="0" y="0" style="font-family: 'Open Sans', verdana, arial, sans-serif; font-size: 12px; fill: rgb(255, 255, 255); fill-opacity: 1; white-space: pre;" transform="translate(416.34285679637725,262.8911066333983)scale(0.022119303627749484)rotate(18.955349620893116)">OU=Disabled Computers</text></g></g><g class="slice cursor-pointer"><path class="surface" d="M384.07862271471794,251.6037698127768L418.1572454294359,263.2075396255536A72,72 0,0,0 421.3191963329705,249.87786588384395L385.65959816648524,244.938932941922A36,36 0,0,1 384.07862271471794,251.6037698127768Z" style="pointer-events: all; stroke-width: 1; fill: rgb(239, 85, 59); fill-opacity: 1; stroke: rgb(255, 255, 255); stroke-opacity: 1;"/><g class="slicetext"><text data-notex="1" class="slicetext" text-anchor="middle" x="0" y="0" style="font-family: 'Open Sans', verdana, arial, sans-serif; font-size: 12px; fill: rgb(68, 68, 68); fill-opacity: 1; white-space: pre;" transform="translate(402.0932651855064,253.7665395332326)scale(0.30474821462143775)rotate(13.344566133108685)">OU=HPNAServers</text></g></g><g class="slice cursor-pointer"><path class="surface" d="M385.65959816648524,244.938932941922L421.3191963329705,249.87786588384395A72,72 0,0,0 421.51234205602987,248.36569983093926L385.75617102801493,244.18284991546963A36,36 0,0,1 385.65959816648524,244.938932941922Z" style="pointer-events: all; stroke-width: 1; fill: rgb(239, 85, 59); fill-opacity: 1; stroke: rgb(255, 255, 255); stroke-opacity: 1;"/><g class="slicetext"><text data-notex="1" class="slicetext" text-anchor="middle" x="0" y="0" style="font-family: 'Open Sans', verdana, arial, sans-serif; font-size: 12px; fill: rgb(68, 68, 68); fill-opacity: 1; white-space: pre;" transform="translate(415.68082584442755,248.74489778003277)scale(0.07839133809928069)rotate(7.278854254422981)">OU=EM_HPNAServers</text></g></g><g class="slice cursor-pointer"><path class="surface" d="M385.75617102801493,244.18284991546963L421.51234205602987,248.36569983093926A72,72 0,0,0 421.59689783457316,247.60816800982306L385.7984489172866,243.80408400491154A36,36 0,0,1 385.75617102801493,244.18284991546963Z" style="pointer-events: all; stroke-width: 1; fill: rgb(239, 85, 59); fill-opacity: 1; stroke: rgb(255, 255, 255); stroke-opacity: 1;"/><g class="slicetext"><text data-notex="1" class="slicetext" text-anchor="middle" x="0" y="0" style="font-family: 'Open Sans', verdana, arial, sans-serif; font-size: 12px; fill: rgb(68, 68, 68); fill-opacity: 1; white-space: pre;" transform="translate(418.37450154830356,247.8243577169205)scale(0.04248922811425449)rotate(6.368997472620094)">OU=PCI_HPNAServers</text></g></g><g class="slice"><path class="surface" d="M385.7984489172866,243.80408400491154L421.59689783457316,247.60816800982306A72,72 0,0,0 421.8779821226019,244.1899505943297L385.93899106130095,242.09497529716484A36,36 0,0,1 385.7984489172866,243.80408400491154Z" style="pointer-events: all; stroke-width: 1; fill: rgb(0, 204, 150); fill-opacity: 1; stroke: rgb(255, 255, 255); stroke-opacity: 1; opacity: 0.7;"/><g class="slicetext"><text data-notex="1" class="slicetext" text-anchor="middle" x="0" y="0" style="font-family: 'Open Sans', verdana, arial, sans-serif; font-size: 12px; fill: rgb(68, 68, 68); fill-opacity: 1; white-space: pre;" transform="translate(416.4297503280355,246.27063381105285)scale(0.17895873057855008)rotate(4.700926705981487)">OU=CVG</text></g></g><g class="slice"><path class="surface" d="M385.93899106130095,242.09497529716484L421.8779821226019,244.1899505943297A72,72 0,0,0 421.96948906594844,242.09586344648977L385.9847445329742,241.0479317232449A36,36 0,0,1 385.93899106130095,242.09497529716484Z" style="pointer-events: all; stroke-width: 1; fill: rgb(0, 204, 150); fill-opacity: 1; stroke: rgb(255, 255, 255); stroke-opacity: 1; opacity: 0.7;"/><g class="slicetext"><text data-notex="1" class="slicetext" text-anchor="middle" x="0" y="0" style="font-family: 'Open Sans', verdana, arial, sans-serif; font-size: 12px; fill: rgb(68, 68, 68); fill-opacity: 1; white-space: pre;" transform="translate(418.7042109324321,243.52821983519064)scale(0.11677719827127037)rotate(2.5021061499579105)">OU=ATL</text></g></g><g class="slice"><path class="surface" d="M385.9847445329742,241.0479317232449L421.96948906594844,242.09586344648977A72,72 0,0,0 421.99974782585633,240.19055973629509L385.99987391292814,240.09527986814754A36,36 0,0,1 385.9847445329742,241.0479317232449Z" style="pointer-events: all; stroke-width: 1; fill: rgb(0, 204, 150); fill-opacity: 1; stroke: rgb(255, 255, 255); stroke-opacity: 1; opacity: 0.7;"/><g class="slicetext"><text data-notex="1" class="slicetext" text-anchor="middle" x="0" y="0" style="font-family: 'Open Sans', verdana, arial, sans-serif; font-size: 12px; fill: rgb(68, 68, 68); fill-opacity: 1; white-space: pre;" transform="translate(418.76436040692687,241.56938409023383)scale(0.10605651165552232)rotate(0.9098567818028869)">OU=CMH</text></g></g><g class="slice"><path class="surface" d="M385.99987391292814,240.09527986814754L421.99974782585633,240.19055973629509A72,72 0,0,0 422,240.00000000000003L386,240A36,36 0,0,1 385.99987391292814,240.09527986814754Z" style="pointer-events: all; stroke-width: 1; fill: rgb(0, 204, 150); fill-opacity: 1; stroke: rgb(255, 255, 255); stroke-opacity: 1; opacity: 0.7;"/><g class="slicetext"><text data-notex="1" class="slicetext" text-anchor="middle" x="0" y="0" style="font-family: 'Open Sans', verdana, arial, sans-serif; font-size: 12px; fill: rgb(68, 68, 68); fill-opacity: 1; white-space: pre;" transform="translate(421.66759199667956,240.1467633295762)scale(0.01153847463597449)rotate(0.07582139848352654)">OU=DAL</text></g></g><g class="slice cursor-pointer"><path class="surface" d="M422,240L458,240A108,108 0,0,0 250.7343843152924,197.45193843738662L283.82292287686164,211.6346256249244A72,72 0,0,1 422,240Z" style="pointer-events: all; stroke-width: 1; fill: rgb(99, 110, 250); fill-opacity: 1; stroke: rgb(255, 255, 255); stroke-opacity: 1;"/><g class="slicetext"><text data-notex="1" class="slicetext" text-anchor="middle" x="0" y="0" style="font-family: 'Open Sans', verdana, arial, sans-serif; font-size: 12px; fill: rgb(255, 255, 255); fill-opacity: 1; white-space: pre;" transform="translate(365.960659078689,162.25037500686068)rotate(11.600673967986495)">OU=Intune</text></g></g><g class="slice cursor-pointer"><path class="surface" d="M283.82292287686164,211.6346256249244L250.7343843152924,197.45193843738662A108,108 0,0,0 265.1437598015683,306.8088205208419L293.42917320104556,284.53921368056126A72,72 0,0,1 283.82292287686164,211.6346256249244Z" style="pointer-events: all; stroke-width: 1; fill: rgb(99, 110, 250); fill-opacity: 1; stroke: rgb(255, 255, 255); stroke-opacity: 1;"/><g class="slicetext"><text data-notex="1" class="slicetext" text-anchor="middle" x="0" y="0" style="font-family: 'Open Sans', verdana, arial, sans-serif; font-size: 12px; fill: rgb(255, 255, 255); fill-opacity: 1; white-space: pre;" transform="translate(257.6566725947133,252.1597097282328)rotate(82.49368155012633)">OU=Eyemed</text></g></g><g class="slice"><path class="surface" d="M293.42917320104556,284.53921368056126L265.1437598015683,306.8088205208419A108,108 0,0,0 265.4985882364451,307.25705472265446L293.6657254909634,284.8380364817697A72,72 0,0,1 293.42917320104556,284.53921368056126Z" style="pointer-events: all; stroke-width: 1; fill: rgb(99, 110, 250); fill-opacity: 1; stroke: rgb(255, 255, 255); stroke-opacity: 1; opacity: 0.7;"/><g class="slicetext"><text data-notex="1" class="slicetext" text-anchor="middle" x="0" y="0" style="font-family: 'Open Sans', verdana, arial, sans-serif; font-size: 12px; fill: rgb(255, 255, 255); fill-opacity: 1; white-space: pre;" transform="translate(266.72855894294736,306.1190060262559)scale(0.034877676236635465)rotate(-38.36562763268739)">OU=ITSec Test</text></g></g><g class="slice cursor-pointer"><path class="surface" d="M293.6657254909634,284.8380364817697L265.4985882364451,307.25705472265446A108,108 0,0,0 265.8557843417478,307.7034044288582L293.90385622783185,285.1356029525722A72,72 0,0,1 293.6657254909634,284.8380364817697Z" style="pointer-events: all; stroke-width: 1; fill: rgb(99, 110, 250); fill-opacity: 1; stroke: rgb(255, 255, 255); stroke-opacity: 1;"/><g class="slicetext"><text data-notex="1" class="slicetext" text-anchor="middle" x="0" y="0" style="font-family: 'Open Sans', verdana, arial, sans-serif; font-size: 12px; fill: rgb(255, 255, 255); fill-opacity: 1; white-space: pre;" transform="translate(267.1215102665254,306.5252005489521)scale(0.034840819276017905)rotate(-38.668913226621726)">OU=Windows 7</text></g></g><g class="slice"><path class="surface" d="M293.90385622783185,285.1356029525722L265.8557843417478,307.7034044288582A108,108 0,0,0 266.0352671457724,307.9258686857827L294.02351143051493,285.2839124571884A72,72 0,0,1 293.90385622783185,285.1356029525722Z" style="pointer-events: all; stroke-width: 1; fill: rgb(99, 110, 250); fill-opacity: 1; stroke: rgb(255, 255, 255); stroke-opacity: 1; opacity: 0.7;"/><g class="slicetext"><text data-notex="1" class="slicetext" text-anchor="middle" x="0" y="0" style="font-family: 'Open Sans', verdana, arial, sans-serif; font-size: 12px; fill: rgb(255, 255, 255); fill-opacity: 1; white-space: pre;" transform="translate(266.39798765226357,307.5526462466551)scale(0.017823229717212383)rotate(-38.89637742207242)">OU=MAC</text></g></g><g class="slice cursor-pointer"><path class="surface" d="M294.02351143051493,285.2839124571885L266.0352671457724,307.9258686857827A108,108 0,0,0 337.30950931432864,347.2518132534685L341.53967287621913,311.5012088356457A72,72 0,0,1 294.02351143051493,285.2839124571885Z" style="pointer-events: all; stroke-width: 1; fill: rgb(99, 110, 250); fill-opacity: 1; stroke: rgb(255, 255, 255); stroke-opacity: 1;"/><g class="slicetext"><text data-notex="1" class="slicetext" text-anchor="middle" x="0" y="0" style="font-family: 'Open Sans', verdana, arial, sans-serif; font-size: 12px; fill: rgb(255, 255, 255); fill-opacity: 1; white-space: pre;" transform="translate(301.9053143831582,326.88040645657077)scale(0.7376066997911435)rotate(28.88795282224089)">OU=Windows 7</text></g></g><g class="slice"><path class="surface" d="M341.53967287621913,311.5012088356457L337.30950931432864,347.2518132534685A108,108 0,0,0 392.94180963914135,339.0959181042072L378.6278730927609,306.06394540280485A72,72 0,0,1 341.53967287621913,311.5012088356457Z" style="pointer-events: all; stroke-width: 1; fill: rgb(99, 110, 250); fill-opacity: 1; stroke: rgb(255, 255, 255); stroke-opacity: 1; opacity: 0.7;"/><g class="slicetext"><text data-notex="1" class="slicetext" text-anchor="middle" x="0" y="0" style="font-family: 'Open Sans', verdana, arial, sans-serif; font-size: 12px; fill: rgb(255, 255, 255); fill-opacity: 1; white-space: pre;" transform="translate(364.8534817887322,342.34044604341966)scale(0.3876806641702728)rotate(-8.340353833192921)">OU=Intune - Laptops</text></g></g><g class="slice"><path class="surface" d="M378.6278730927609,306.06394540280485L392.94180963914135,339.0959181042072A108,108 0,0,0 418.9210472773886,323.1498000129163L395.9473648515924,295.4332000086108A72,72 0,0,1 378.6278730927609,306.06394540280485Z" style="pointer-events: all; stroke-width: 1; fill: rgb(99, 110, 250); fill-opacity: 1; stroke: rgb(255, 255, 255); stroke-opacity: 1; opacity: 0.7;"/><g class="slicetext"><text data-notex="1" class="slicetext" text-anchor="middle" x="0" y="0" style="font-family: 'Open Sans', verdana, arial, sans-serif; font-size: 12px; fill: rgb(255, 255, 255); fill-opacity: 1; white-space: pre;" transform="translate(396.22282464041285,317.12715346507537)scale(0.21174036912766478)rotate(58.45829823083403)">OU=Intune - Workstations</text></g></g><g class="slice"><path class="surface" d="M395.9473648515924,295.4332000086108L418.9210472773886,323.1498000129163A108,108 0,0,0 432.87552897646924,309.2506079169736L405.2503526509795,286.1670719446491A72,72 0,0,1 395.9473648515924,295.4332000086108Z" style="pointer-events: all; stroke-width: 1; fill: rgb(99, 110, 250); fill-opacity: 1; stroke: rgb(255, 255, 255); stroke-opacity: 1; opacity: 0.7;"/><g class="slicetext"><text data-notex="1" class="slicetext" text-anchor="middle" x="0" y="0" style="font-family: 'Open Sans', verdana, arial, sans-serif; font-size: 12px; fill: rgb(255, 255, 255); fill-opacity: 1; white-space: pre;" transform="translate(411.8905541446977,305.3303197507542)scale(0.5008241879183684)rotate(45.11373209772535)">OU=Intune</text></g></g><g class="slice"><path class="surface" d="M412.2423720212472,276.19236280168326L443.36355803187075,294.2885442025249A108,108 0,0,0 450.97785521610535,278.3076070246533L417.31857014407024,265.5384046831022A72,72 0,0,1 412.2423720212472,276.19236280168326Z" style="pointer-events: all; stroke-width: 1; fill: rgb(99, 110, 250); fill-opacity: 1; stroke: rgb(255, 255, 255); stroke-opacity: 1; opacity: 0.7;"/><g class="slicetext"><text data-notex="1" class="slicetext" text-anchor="middle" x="0" y="0" style="font-family: 'Open Sans', verdana, arial, sans-serif; font-size: 12px; fill: rgb(255, 255, 255); fill-opacity: 1; white-space: pre;" transform="translate(430.2464639247772,280.73077949957485)scale(0.5008241879183684)rotate(25.475989890480264)">OU=Intune</text></g></g><g class="slice"><path class="surface" d="M417.31857014407024,265.5384046831022L450.97785521610535,278.3076070246533A108,108 0,0,0 452.050168891165,275.351987628487L418.0334459274433,263.5679917523247A72,72 0,0,1 417.31857014407024,265.5384046831022Z" style="pointer-events: all; stroke-width: 1; fill: rgb(99, 110, 250); fill-opacity: 1; stroke: rgb(255, 255, 255); stroke-opacity: 1; opacity: 0.7;"/><g class="slicetext"><text data-notex="1" class="slicetext" text-anchor="middle" x="0" y="0" style="font-family: 'Open Sans', verdana, arial, sans-serif; font-size: 12px; fill: rgb(255, 255, 255); fill-opacity: 1; white-space: pre;" transform="translate(445.348686825942,275.4305221106541)scale(0.17496017724391857)rotate(19.941027801179473)">OU=Intune</text></g></g><g class="slice"><path class="surface" d="M418.1572454294359,263.2075396255536L452.23586814415387,274.81130943833034A108,108 0,0,0 455.4665375214946,263.2553104306772L420.31102501432974,255.50354028711814A72,72 0,0,1 418.1572454294359,263.2075396255536Z" style="pointer-events: all; stroke-width: 1; fill: rgb(239, 85, 59); fill-opacity: 1; stroke: rgb(255, 255, 255); stroke-opacity: 1; opacity: 0.7;"/><g class="slicetext"><text data-notex="1" class="slicetext" text-anchor="middle" x="0" y="0" style="font-family: 'Open Sans', verdana, arial, sans-serif; font-size: 12px; fill: rgb(68, 68, 68); fill-opacity: 1; white-space: pre;" transform="translate(436.24217440386764,265.71183163929453)scale(0.3427285395151723)rotate(15.619208087615846)">OU=Unclassified</text></g></g><g class="slice cursor-pointer"><path class="surface" d="M420.31102501432974,255.50354028711814L455.4665375214946,263.2553104306772A108,108 0,0,0 456.7733576449349,256.23114589999204L421.18223842995656,250.82076393332804A72,72 0,0,1 420.31102501432974,255.50354028711814Z" style="pointer-events: all; stroke-width: 1; fill: rgb(239, 85, 59); fill-opacity: 1; stroke: rgb(255, 255, 255); stroke-opacity: 1;"/><g class="slicetext"><text data-notex="1" class="slicetext" text-anchor="middle" x="0" y="0" style="font-family: 'Open Sans', verdana, arial, sans-serif; font-size: 12px; fill: rgb(68, 68, 68); fill-opacity: 1; white-space: pre;" transform="translate(438.28914174985084,257.4562933174204)scale(0.22511960955847454)rotate(10.539174389216555)">OU=Business Application</text></g></g><g class="slice"><path class="surface" d="M421.18223842995656,250.82076393332804L456.7733576449349,256.23114589999204A108,108 0,0,0 456.9392047416381,255.09988374875803L421.2928031610921,250.06658916583868A72,72 0,0,1 421.18223842995656,250.82076393332804Z" style="pointer-events: all; stroke-width: 1; fill: rgb(239, 85, 59); fill-opacity: 1; stroke: rgb(255, 255, 255); stroke-opacity: 1; opacity: 0.7;"/><g class="slicetext"><text data-notex="1" class="slicetext" text-anchor="middle" x="0" y="0" style="font-family: 'Open Sans', verdana, arial, sans-serif; font-size: 12px; fill: rgb(68, 68, 68); fill-opacity: 1; white-space: pre;" transform="translate(453.8039940450533,255.5270214748855)scale(0.06793668278239902)rotate(8.340353833192978)">OU=Database</text></g></g><g class="slice cursor-pointer"><path class="surface" d="M421.2928031610921,250.06658916583868L456.9392047416381,255.09988374875803A108,108 0,0,0 456.9787944994557,254.81679882576603L421.3191963329705,249.877865883844A72,72 0,0,1 421.2928031610921,250.06658916583868Z" style="pointer-events: all; stroke-width: 1; fill: rgb(239, 85, 59); fill-opacity: 1; stroke: rgb(255, 255, 255); stroke-opacity: 1;"/><g class="slicetext"><text data-notex="1" class="slicetext" text-anchor="middle" x="0" y="0" style="font-family: 'Open Sans', verdana, arial, sans-serif; font-size: 12px; fill: rgb(68, 68, 68); fill-opacity: 1; white-space: pre;" transform="translate(455.9156029179252,254.89261850471846)scale(0.01764989385492578)rotate(7.961246840775118)">OU=Infrastructure</text></g></g><g class="slice cursor-pointer"><path class="surface" d="M421.3191963329705,249.87786588384395L456.9787944994557,254.81679882576594A108,108 0,0,0 457.26851308404486,252.54854974640892L421.51234205602987,248.36569983093926A72,72 0,0,1 421.3191963329705,249.87786588384395Z" style="pointer-events: all; stroke-width: 1; fill: rgb(239, 85, 59); fill-opacity: 1; stroke: rgb(255, 255, 255); stroke-opacity: 1;"/><g class="slicetext"><text data-notex="1" class="slicetext" text-anchor="middle" x="0" y="0" style="font-family: 'Open Sans', verdana, arial, sans-serif; font-size: 12px; fill: rgb(68, 68, 68); fill-opacity: 1; white-space: pre;" transform="translate(446.796238572969,252.8921311643766)scale(0.11651021416385986)rotate(7.278854254422981)">OU=EM Application Servers</text></g></g><g class="slice cursor-pointer"><path class="surface" d="M421.51234205602987,248.36569983093926L457.26851308404486,252.54854974640892A108,108 0,0,0 457.39534675185973,251.4122520147346L421.59689783457316,247.60816800982306A72,72 0,0,1 421.51234205602987,248.36569983093926Z" style="pointer-events: all; stroke-width: 1; fill: rgb(239, 85, 59); fill-opacity: 1; stroke: rgb(255, 255, 255); stroke-opacity: 1;"/><g class="slicetext"><text data-notex="1" class="slicetext" text-anchor="middle" x="0" y="0" style="font-family: 'Open Sans', verdana, arial, sans-serif; font-size: 12px; fill: rgb(68, 68, 68); fill-opacity: 1; white-space: pre;" transform="translate(451.52693803819307,251.62349282983203)scale(0.0642776493526974)rotate(6.368997472620094)">OU=PCI Application Servers</text></g></g><g class="slice"><path class="surface" d="M458,240L494,240A144,144 0,0,0 455.20078462193396,141.6699694145809L428.9005884664505,166.25247706093566A108,108 0,0,1 458,240Z" style="pointer-events: all; stroke-width: 1; fill: rgb(99, 110, 250); fill-opacity: 1; stroke: rgb(255, 255, 255); stroke-opacity: 1; opacity: 0.7;"/><g class="slicetext"><text data-notex="1" class="slicetext" text-anchor="middle" x="0" y="0" style="font-family: 'Open Sans', verdana, arial, sans-serif; font-size: 12px; fill: rgb(255, 255, 255); fill-opacity: 1; white-space: pre;" transform="translate(468.19845909036377,193.07758467217815)scale(0.6888458201332388)rotate(68.4667228306655)">OU=CVG Workstations</text></g></g><g class="slice"><path class="surface" d="M250.7343843152924,197.45193843738662L217.64584575372322,183.26925124984885A144,144 0,0,0 234.768795694701,326.35837859959184L263.5765967710258,304.7687839496939A108,108 0,0,1 250.7343843152924,197.45193843738662Z" style="pointer-events: all; stroke-width: 1; fill: rgb(99, 110, 250); fill-opacity: 1; stroke: rgb(255, 255, 255); stroke-opacity: 1; opacity: 0.7;"/><g class="slicetext"><text data-notex="1" class="slicetext" text-anchor="middle" x="0" y="0" style="font-family: 'Open Sans', verdana, arial, sans-serif; font-size: 12px; fill: rgb(255, 255, 255); fill-opacity: 1; white-space: pre;" transform="translate(224.8350497322133,254.60282354359614)scale(0.9731867147115023)rotate(83.17607413647852)">OU=Intune - Laptops</text></g></g><g class="slice"><path class="surface" d="M263.5765967710258,304.7687839496939L234.768795694701,326.35837859959184A144,144 0,0,0 236.85834640209112,329.0784273611226L265.1437598015683,306.80882052084195A108,108 0,0,1 263.5765967710258,304.7687839496939Z" style="pointer-events: all; stroke-width: 1; fill: rgb(99, 110, 250); fill-opacity: 1; stroke: rgb(255, 255, 255); stroke-opacity: 1; opacity: 0.7;"/><g class="slicetext"><text data-notex="1" class="slicetext" text-anchor="middle" x="0" y="0" style="font-family: 'Open Sans', verdana, arial, sans-serif; font-size: 12px; fill: rgb(255, 255, 255); fill-opacity: 1; white-space: pre;" transform="translate(247.83401005431998,319.47520076860417)scale(0.174629497989965)rotate(-37.531592249368146)">OU=Intune - Workstations</text></g></g><g class="slice"><path class="surface" d="M265.4985882364451,307.25705472265446L237.33145098192674,329.6760729635393A144,144 0,0,0 237.8077124556637,330.2712059051443L265.8557843417478,307.7034044288582A108,108 0,0,1 265.4985882364451,307.25705472265446Z" style="pointer-events: all; stroke-width: 1; fill: rgb(99, 110, 250); fill-opacity: 1; stroke: rgb(255, 255, 255); stroke-opacity: 1; opacity: 0.7;"/><g class="slicetext"><text data-notex="1" class="slicetext" text-anchor="middle" x="0" y="0" style="font-family: 'Open Sans', verdana, arial, sans-serif; font-size: 12px; fill: rgb(255, 255, 255); fill-opacity: 1; white-space: pre;" transform="translate(239.73144233600937,328.5140601906683)scale(0.04692819337414501)rotate(-38.668913226621726)">OU=Workstations</text></g></g><g class="slice"><path class="surface" d="M266.0352671457724,307.9258686857827L238.0470228610299,330.56782491437696A144,144 0,0,0 333.0793457524382,383.00241767129137L337.30950931432864,347.2518132534685A108,108 0,0,1 266.0352671457724,307.9258686857827Z" style="pointer-events: all; stroke-width: 1; fill: rgb(99, 110, 250); fill-opacity: 1; stroke: rgb(255, 255, 255); stroke-opacity: 1; opacity: 0.7;"/><g class="slicetext"><text data-notex="1" class="slicetext" text-anchor="middle" x="0" y="0" style="font-family: 'Open Sans', verdana, arial, sans-serif; font-size: 12px; fill: rgb(255, 255, 255); fill-opacity: 1; white-space: pre;" transform="translate(285.634666205113,355.9669548740832)scale(0.8871137949326078)rotate(28.88795282224089)">OU=Workstations</text></g></g><g class="slice"><path class="surface" d="M455.4665375214946,263.2553104306772L490.6220500286595,271.0070805742363A144,144 0,0,0 491.02005223695943,269.1435218716825L455.7650391777196,261.8576414037619A108,108 0,0,1 455.4665375214946,263.2553104306772Z" style="pointer-events: all; stroke-width: 1; fill: rgb(239, 85, 59); fill-opacity: 1; stroke: rgb(255, 255, 255); stroke-opacity: 1; opacity: 0.7;"/><g class="slicetext"><text data-notex="1" class="slicetext" text-anchor="middle" x="0" y="0" style="font-family: 'Open Sans', verdana, arial, sans-serif; font-size: 12px; fill: rgb(68, 68, 68); fill-opacity: 1; white-space: pre;" transform="translate(486.1477717244783,269.60143563329115)scale(0.11392230159176593)rotate(12.055602358887995)">OU=Equitrac</text></g></g><g class="slice cursor-pointer"><path class="surface" d="M455.7650391777196,261.8576414037619L491.02005223695943,269.1435218716825A144,144 0,0,0 491.24700413857965,268.0229160130789L455.9352531039347,261.01718700980916A108,108 0,0,1 455.7650391777196,261.8576414037619Z" style="pointer-events: all; stroke-width: 1; fill: rgb(239, 85, 59); fill-opacity: 1; stroke: rgb(255, 255, 255); stroke-opacity: 1;"/><g class="slicetext"><text data-notex="1" class="slicetext" text-anchor="middle" x="0" y="0" style="font-family: 'Open Sans', verdana, arial, sans-serif; font-size: 12px; fill: rgb(68, 68, 68); fill-opacity: 1; white-space: pre;" transform="translate(487.62079456975965,268.1909084930605)scale(0.06950220856011623)rotate(11.449031171019385)">OU=SolarWinds</text></g></g><g class="slice"><path class="surface" d="M455.9352531039347,261.01718700980916L491.24700413857965,268.0229160130789A144,144 0,0,0 491.4650513712051,266.90054349901317L456.0987885284038,260.1754076242599A108,108 0,0,1 455.9352531039347,261.01718700980916Z" style="pointer-events: all; stroke-width: 1; fill: rgb(239, 85, 59); fill-opacity: 1; stroke: rgb(255, 255, 255); stroke-opacity: 1; opacity: 0.7;"/><g class="slicetext"><text data-notex="1" class="slicetext" text-anchor="middle" x="0" y="0" style="font-family: 'Open Sans', verdana, arial, sans-serif; font-size: 12px; fill: rgb(68, 68, 68); fill-opacity: 1; white-space: pre;" transform="translate(487.0638935763048,266.94283107433824)scale(0.06870420258513169)rotate(10.994102780117942)">OU=Contact Center</text></g></g><g class="slice"><path class="surface" d="M456.0987885284038,260.1754076242599L491.4650513712051,266.90054349901317A144,144 0,0,0 491.67418018843154,265.77647508748686L456.25563514132364,259.33235631561513A108,108 0,0,1 456.0987885284038,260.1754076242599Z" style="pointer-events: all; stroke-width: 1; fill: rgb(239, 85, 59); fill-opacity: 1; stroke: rgb(255, 255, 255); stroke-opacity: 1; opacity: 0.7;"/><g class="slicetext"><text data-notex="1" class="slicetext" text-anchor="middle" x="0" y="0" style="font-family: 'Open Sans', verdana, arial, sans-serif; font-size: 12px; fill: rgb(68, 68, 68); fill-opacity: 1; white-space: pre;" transform="translate(486.65133546022315,265.7348717118352)scale(0.06803052289000118)rotate(10.539174389216555)">OU=MonitorsAnywhere</text></g></g><g class="slice"><path class="surface" d="M456.25563514132364,259.33235631561513L491.67418018843154,265.77647508748686A144,144 0,0,0 491.80863819083555,265.0261889719688L456.3564786431267,258.7696417289766A108,108 0,0,1 456.25563514132364,259.33235631561513Z" style="pointer-events: all; stroke-width: 1; fill: rgb(239, 85, 59); fill-opacity: 1; stroke: rgb(255, 255, 255); stroke-opacity: 1; opacity: 0.7;"/><g class="slicetext"><text data-notex="1" class="slicetext" text-anchor="middle" x="0" y="0" style="font-family: 'Open Sans', verdana, arial, sans-serif; font-size: 12px; fill: rgb(68, 68, 68); fill-opacity: 1; white-space: pre;" transform="translate(490.1454431841758,265.3331158864507)scale(0.047639997310803005)rotate(10.160067396798638)">OU=Altiris</text></g></g><g class="slice"><path class="surface" d="M456.3564786431267,258.7696417289766L491.80863819083555,265.0261889719688A144,144 0,0,0 491.8743774061004,264.6507816434163L456.4057830545753,258.48808623256224A108,108 0,0,1 456.3564786431267,258.7696417289766Z" style="pointer-events: all; stroke-width: 1; fill: rgb(239, 85, 59); fill-opacity: 1; stroke: rgb(255, 255, 255); stroke-opacity: 1; opacity: 0.7;"/><g class="slicetext"><text data-notex="1" class="slicetext" text-anchor="middle" x="0" y="0" style="font-family: 'Open Sans', verdana, arial, sans-serif; font-size: 12px; fill: rgb(68, 68, 68); fill-opacity: 1; white-space: pre;" transform="translate(490.56686333950626,264.7245458628528)scale(0.023918068801837618)rotate(9.932603201347945)">OU=GlobalScape</text></g></g><g class="slice"><path class="surface" d="M456.4057830545753,258.48808623256224L491.8743774061004,264.6507816434163A144,144 0,0,0 491.939122814431,264.27520164014845L456.4543421108233,258.20640123011134A108,108 0,0,1 456.4057830545753,258.48808623256224Z" style="pointer-events: all; stroke-width: 1; fill: rgb(239, 85, 59); fill-opacity: 1; stroke: rgb(255, 255, 255); stroke-opacity: 1; opacity: 0.7;"/><g class="slicetext"><text data-notex="1" class="slicetext" text-anchor="middle" x="0" y="0" style="font-family: 'Open Sans', verdana, arial, sans-serif; font-size: 12px; fill: rgb(68, 68, 68); fill-opacity: 1; white-space: pre;" transform="translate(490.7827991734688,264.37869668123665)scale(0.02397097541952346)rotate(9.780960404380835)">OU=Jaspersoft</text></g></g><g class="slice"><path class="surface" d="M456.4543421108233,258.20640123011134L491.939122814431,264.27520164014845A144,144 0,0,0 492.0028739622964,263.8994515930421L456.5021554717223,257.9245886947816A108,108 0,0,1 456.4543421108233,258.20640123011134Z" style="pointer-events: all; stroke-width: 1; fill: rgb(239, 85, 59); fill-opacity: 1; stroke: rgb(255, 255, 255); stroke-opacity: 1; opacity: 0.7;"/><g class="slicetext"><text data-notex="1" class="slicetext" text-anchor="middle" x="0" y="0" style="font-family: 'Open Sans', verdana, arial, sans-serif; font-size: 12px; fill: rgb(68, 68, 68); fill-opacity: 1; white-space: pre;" transform="translate(490.72976616703477,263.9859572362755)scale(0.023929733595263143)rotate(9.629317607413668)">OU=Cisco CUCM</text></g></g><g class="slice"><path class="surface" d="M456.5021554717223,257.9245886947816L492.0028739622964,263.8994515930421A144,144 0,0,0 492.06563040313006,263.52353413416523L456.5492228023476,257.64265060062394A108,108 0,0,1 456.5021554717223,257.9245886947816Z" style="pointer-events: all; stroke-width: 1; fill: rgb(239, 85, 59); fill-opacity: 1; stroke: rgb(255, 255, 255); stroke-opacity: 1; opacity: 0.7;"/><g class="slicetext"><text data-notex="1" class="slicetext" text-anchor="middle" x="0" y="0" style="font-family: 'Open Sans', verdana, arial, sans-serif; font-size: 12px; fill: rgb(68, 68, 68); fill-opacity: 1; white-space: pre;" transform="translate(490.99517183379976,263.64753417269344)scale(0.024002831887286358)rotate(9.477674810446615)">OU=LucyStar</text></g></g><g class="slice"><path class="surface" d="M456.5492228023476,257.64265060062394L492.06563040313006,263.52353413416523A144,144 0,0,0 492.12739169733345,263.14745189675847L456.5955437730001,257.36058892256887A108,108 0,0,1 456.5492228023476,257.64265060062394Z" style="pointer-events: all; stroke-width: 1; fill: rgb(239, 85, 59); fill-opacity: 1; stroke: rgb(255, 255, 255); stroke-opacity: 1; opacity: 0.7;"/><g class="slicetext"><text data-notex="1" class="slicetext" text-anchor="middle" x="0" y="0" style="font-family: 'Open Sans', verdana, arial, sans-serif; font-size: 12px; fill: rgb(68, 68, 68); fill-opacity: 1; white-space: pre;" transform="translate(491.4135857338803,263.333351351312)scale(0.024123595113905813)rotate(9.326032013479391)">OU=ETQ</text></g></g><g class="slice cursor-pointer"><path class="surface" d="M456.5955437730001,257.36058892256887L492.12739169733345,263.14745189675847A144,144 0,0,0 492.18815741227866,262.7712075152167L456.641118059209,257.0784056364125A108,108 0,0,1 456.5955437730001,257.36058892256887Z" style="pointer-events: all; stroke-width: 1; fill: rgb(239, 85, 59); fill-opacity: 1; stroke: rgb(255, 255, 255); stroke-opacity: 1;"/><g class="slicetext"><text data-notex="1" class="slicetext" text-anchor="middle" x="0" y="0" style="font-family: 'Open Sans', verdana, arial, sans-serif; font-size: 12px; fill: rgb(68, 68, 68); fill-opacity: 1; white-space: pre;" transform="translate(491.19828732834736,262.9138976487291)scale(0.024028822625609025)rotate(9.174389216512338)">OU=RCC BO</text></g></g><g class="slice"><path class="surface" d="M456.641118059209,257.0784056364125L492.18815741227866,262.7712075152167A144,144 0,0,0 492.2479271223118,262.3948036250706L456.6859453417338,256.79610271880296A108,108 0,0,1 456.641118059209,257.0784056364125Z" style="pointer-events: all; stroke-width: 1; fill: rgb(239, 85, 59); fill-opacity: 1; stroke: rgb(255, 255, 255); stroke-opacity: 1; opacity: 0.7;"/><g class="slicetext"><text data-notex="1" class="slicetext" text-anchor="middle" x="0" y="0" style="font-family: 'Open Sans', verdana, arial, sans-serif; font-size: 12px; fill: rgb(68, 68, 68); fill-opacity: 1; white-space: pre;" transform="translate(490.8860323767928,262.4804007819572)scale(0.0239020806102515)rotate(9.022746419545172)">OU=Rax Robotics</text></g></g><g class="slice cursor-pointer"><path class="surface" d="M456.6859453417338,256.79610271880296L492.2479271223118,262.3948036250706A144,144 0,0,0 492.3067004087557,262.0182428629682L456.7300253065668,256.5136821472261A108,108 0,0,1 456.6859453417338,256.79610271880296Z" style="pointer-events: all; stroke-width: 1; fill: rgb(239, 85, 59); fill-opacity: 1; stroke: rgb(255, 255, 255); stroke-opacity: 1;"/><g class="slicetext"><text data-notex="1" class="slicetext" text-anchor="middle" x="0" y="0" style="font-family: 'Open Sans', verdana, arial, sans-serif; font-size: 12px; fill: rgb(68, 68, 68); fill-opacity: 1; white-space: pre;" transform="translate(491.6006328506147,262.21079143740764)scale(0.0241265605633534)rotate(8.871103622578062)">OU=SAP</text></g></g><g class="slice"><path class="surface" d="M456.7300253065668,256.5136821472261L492.3067004087557,262.0182428629682A144,144 0,0,0 492.3644768599131,261.64152786665636L456.77335764493483,256.23114589999227A108,108 0,0,1 456.7300253065668,256.5136821472261Z" style="pointer-events: all; stroke-width: 1; fill: rgb(239, 85, 59); fill-opacity: 1; stroke: rgb(255, 255, 255); stroke-opacity: 1; opacity: 0.7;"/><g class="slicetext"><text data-notex="1" class="slicetext" text-anchor="middle" x="0" y="0" style="font-family: 'Open Sans', verdana, arial, sans-serif; font-size: 12px; fill: rgb(68, 68, 68); fill-opacity: 1; white-space: pre;" transform="translate(490.57665192865585,261.66827108803915)scale(0.023756075481069425)rotate(8.719460825610895)">OU=Legal Technologies</text></g></g><g class="slice"><path class="surface" d="M456.9392047416381,255.09988374875803L492.58560632218416,260.13317833167736A144,144 0,0,0 492.63839266594096,259.755731767688L456.9787944994557,254.81679882576603A108,108 0,0,1 456.9392047416381,255.09988374875803Z" style="pointer-events: all; stroke-width: 1; fill: rgb(239, 85, 59); fill-opacity: 1; stroke: rgb(255, 255, 255); stroke-opacity: 1; opacity: 0.7;"/><g class="slicetext"><text data-notex="1" class="slicetext" text-anchor="middle" x="0" y="0" style="font-family: 'Open Sans', verdana, arial, sans-serif; font-size: 12px; fill: rgb(68, 68, 68); fill-opacity: 1; white-space: pre;" transform="translate(491.9153743992661,259.95662438493025)scale(0.024119312973661156)rotate(7.961246840775118)">OU=BUR</text></g></g><g class="slice"><path class="surface" d="M456.9787944994557,254.81679882576594L492.63839266594096,259.7557317676879A144,144 0,0,0 493.0246841120598,256.7313996618785L457.26851308404486,252.54854974640892A108,108 0,0,1 456.9787944994557,254.81679882576594Z" style="pointer-events: all; stroke-width: 1; fill: rgb(239, 85, 59); fill-opacity: 1; stroke: rgb(255, 255, 255); stroke-opacity: 1; opacity: 0.7;"/><g class="slicetext"><text data-notex="1" class="slicetext" text-anchor="middle" x="0" y="0" style="font-family: 'Open Sans', verdana, arial, sans-serif; font-size: 12px; fill: rgb(68, 68, 68); fill-opacity: 1; white-space: pre;" transform="translate(487.57977438848116,258.3934465990391)scale(0.18090306793955163)rotate(7.278854254422981)">OU=DXC</text></g></g><g class="slice"><path class="surface" d="M457.26851308404486,252.54854974640892L493.0246841120598,256.7313996618785A144,144 0,0,0 493.1937956691463,255.21633601964612L457.39534675185973,251.4122520147346A108,108 0,0,1 457.26851308404486,252.54854974640892Z" style="pointer-events: all; stroke-width: 1; fill: rgb(239, 85, 59); fill-opacity: 1; stroke: rgb(255, 255, 255); stroke-opacity: 1; opacity: 0.7;"/><g class="slicetext"><text data-notex="1" class="slicetext" text-anchor="middle" x="0" y="0" style="font-family: 'Open Sans', verdana, arial, sans-serif; font-size: 12px; fill: rgb(68, 68, 68); fill-opacity: 1; white-space: pre;" transform="translate(490.24299888292126,256.07783200807586)scale(0.09361734243598134)rotate(6.368997472620094)">OU=xPay</text></g></g><g class="slice"><path class="surface" d="M491.02005223695943,269.1435218716825L526.2750652961993,276.42940233960314A180,180 0,0,0 526.3708642585545,275.9627340547201L491.09669140684366,268.7701872437761A144,144 0,0,1 491.02005223695943,269.1435218716825Z" style="pointer-events: all; stroke-width: 1; fill: rgb(239, 85, 59); fill-opacity: 1; stroke: rgb(255, 255, 255); stroke-opacity: 1; opacity: 0.7;"/><g class="slicetext"><text data-notex="1" class="slicetext" text-anchor="middle" x="0" y="0" style="font-family: 'Open Sans', verdana, arial, sans-serif; font-size: 12px; fill: rgb(68, 68, 68); fill-opacity: 1; white-space: pre;" transform="translate(524.6190966271345,275.98465329919526)scale(0.03011857718383025)rotate(11.600673967986609)">OU=TemAdminOU</text></g></g><g class="slice"><path class="surface" d="M492.12739169733345,263.14745189675847L527.6592396216668,268.93431487094807A180,180 0,0,0 527.7351967653483,268.4640093940209L492.18815741227866,262.7712075152167A144,144 0,0,1 492.12739169733345,263.14745189675847Z" style="pointer-events: all; stroke-width: 1; fill: rgb(239, 85, 59); fill-opacity: 1; stroke: rgb(255, 255, 255); stroke-opacity: 1; opacity: 0.7;"/><g class="slicetext"><text data-notex="1" class="slicetext" text-anchor="middle" x="0" y="0" style="font-family: 'Open Sans', verdana, arial, sans-serif; font-size: 12px; fill: rgb(68, 68, 68); fill-opacity: 1; white-space: pre;" transform="translate(526.7763358965994,268.68896453603566)scale(0.030390725156781977)rotate(9.174389216512338)">OU=Build</text></g></g><g class="slice"><path class="surface" d="M492.2479271223118,262.3948036250706L527.8099089028897,267.9935045313382A180,180 0,0,0 527.8833755109447,267.52280357871024L492.3067004087557,262.0182428629682A144,144 0,0,1 492.2479271223118,262.3948036250706Z" style="pointer-events: all; stroke-width: 1; fill: rgb(239, 85, 59); fill-opacity: 1; stroke: rgb(255, 255, 255); stroke-opacity: 1; opacity: 0.7;"/><g class="slicetext"><text data-notex="1" class="slicetext" text-anchor="middle" x="0" y="0" style="font-family: 'Open Sans', verdana, arial, sans-serif; font-size: 12px; fill: rgb(68, 68, 68); fill-opacity: 1; white-space: pre;" transform="translate(527.0091898272357,267.7660093220644)scale(0.030423687176993865)rotate(8.871103622578062)">OU=RTA</text></g></g></g></g><g class="glimages"/><defs id="topdefs-0a938c"><g class="clips"/></defs><g class="layer-above"><g class="imagelayer"/><g class="shapelayer"/></g><g class="infolayer"><g class="g-gtitle"/></g></svg>