<?xml version="1.0" standalone="no"?>
<!DOCTYPE svg PUBLIC "-//W3C//DTD SVG 20010904//EN"
 "http://www.w3.org/TR/2001/REC-SVG-20010904/DTD/svg10.dtd">
<svg version="1.0" xmlns="http://www.w3.org/2000/svg"
 width="204.000000pt" height="202.000000pt" viewBox="0 0 204.000000 202.000000"
 preserveAspectRatio="xMidYMid meet">
<metadata>
Created by potrace 1.16, written by Peter Selinger 2001-2019
</metadata>
<g transform="translate(0.000000,202.000000) scale(0.100000,-0.100000)"
fill="#000000" stroke="none">
<path fill="#000000" stroke="none" d="M0 1010 l0 -1010 483 1 c309 1 457 5
412 10 -346 41 -658 278 -798 607 -133 312 -86 709 116 977 298 396 813 522
1253 305 250 -124 437 -347 520 -625 26 -83 28 -103 28 -270 0 -169 -2 -186
-28 -270 -89 -289 -267 -502 -524 -630 -86 -42 -218 -83 -307 -94 -47 -6 85
-9 408 -10 l477 -1 0 1010 0 1010 -1020 0 -1020 0 0 -1010z"/>
<path fill="#000000" stroke="none" d="M830 1911 c-529 -116 -849 -649 -699
-1166 71 -242 246 -454 469 -565 145 -72 264 -100 427 -100 240 0 450 85 630
253 130 123 217 270 264 447 32 120 32 318 1 443 -81 323 -326 578 -647 672
-123 37 -320 44 -445 16z"/>
<path fill="#ffffff" stroke="none" d="M1084 1819 c14 -51 61 -159 69 -159 1
0 0 21 -2 47 -3 44 -2 46 14 33 34 -29 42 -109 9 -96 -11 4 -11 2 -2 -14 7
-10 13 -18 14 -17 1 1 17 31 36 67 l34 65 -22 32 c-21 31 -23 83 -3 83 15 0
38 -57 34 -81 -4 -23 -4 -24 11 -4 8 11 20 28 27 38 11 16 16 17 40 6 15 -7
27 -15 27 -18 0 -3 -14 -26 -31 -51 -41 -61 -92 -161 -85 -168 3 -3 6 0 6 6 0
17 41 52 62 52 10 0 18 -6 18 -14 0 -21 -48 -56 -76 -56 -13 0 -24 -6 -24 -13
0 -23 12 -27 41 -12 33 17 58 19 79 5 23 -16 -17 -42 -57 -38 l-33 4 26 -27
26 -27 54 63 c50 59 168 165 182 165 4 0 17 -8 30 -18 l23 -18 -68 -58 c-74
-64 -173 -173 -173 -190 0 -6 12 -29 25 -51 20 -32 25 -36 25 -18 0 12 11 35
25 50 l24 28 1 -39 c0 -27 -7 -47 -21 -62 -18 -19 -19 -27 -10 -60 6 -22 11
-55 11 -74 l0 -34 44 43 c33 33 46 54 55 95 16 72 71 182 115 231 l36 40 19
-25 19 -24 -29 -38 c-32 -40 -89 -145 -89 -165 0 -7 40 9 93 37 l94 50 11 -25
c17 -37 15 -42 -19 -54 -25 -8 -30 -14 -23 -28 10 -23 10 -63 0 -85 -7 -14 1
-13 39 8 25 15 48 24 50 22 3 -2 7 -18 11 -34 5 -26 2 -32 -21 -42 -35 -16
-95 -62 -95 -73 0 -4 30 -9 67 -11 l67 -3 2 -32 2 -32 -84 6 c-45 3 -103 2
-128 -1 -42 -7 -46 -10 -46 -35 0 -27 -31 -71 -50 -71 -21 0 -9 52 17 76 l28
26 -30 -7 c-88 -21 -215 -72 -187 -76 6 -1 17 -2 24 -3 7 0 22 9 35 22 14 14
34 22 58 22 46 0 45 -17 -3 -38 l-39 -16 48 -17 c38 -14 56 -15 82 -7 29 9 33
14 29 39 -3 21 3 35 24 56 l29 28 3 -29 c2 -18 -4 -36 -18 -51 l-22 -23 99 5
c110 5 129 -2 119 -41 -5 -19 -13 -26 -31 -26 l-24 0 24 -25 c26 -25 33 -55
14 -55 -24 0 -52 24 -65 56 -14 33 -16 34 -52 28 -47 -9 -53 -14 -15 -14 18 0
38 -9 49 -21 l19 -21 -47 3 c-53 5 -53 2 4 -42 32 -26 38 -28 29 -12 -15 29
-14 33 8 33 11 0 29 -12 40 -26 25 -31 28 -59 6 -50 -52 21 -51 21 -33 0 15
-17 16 -25 6 -51 l-12 -32 -81 77 c-123 117 -225 164 -351 163 -108 -1 -168
-41 -201 -136 -15 -41 -18 -85 -18 -240 0 -237 4 -247 125 -292 22 -9 16 -12
-50 -29 -106 -27 -337 -25 -430 3 l-65 20 48 7 c64 10 111 51 126 111 13 53
14 252 0 348 -14 105 -56 171 -124 197 -16 6 -62 11 -101 11 -129 -1 -237 -56
-362 -185 l-72 -74 -16 30 c-15 28 -14 31 12 65 14 19 55 58 89 86 49 40 60
54 49 60 -8 5 -20 6 -27 3 -7 -2 -3 -5 7 -5 18 -1 18 -2 1 -21 -12 -14 -31
-20 -57 -20 -49 0 -47 20 3 37 19 7 30 12 24 13 -5 0 -20 3 -32 6 -17 5 -25
-1 -39 -28 -20 -38 -42 -57 -67 -58 -15 0 -16 3 -6 23 6 12 22 31 35 42 l23
20 -43 -3 c-42 -4 -44 -3 -48 27 -4 30 -4 30 50 37 30 4 86 4 125 0 l71 -7
-22 21 c-12 11 -22 26 -23 33 0 7 -2 20 -4 30 -4 23 6 22 33 -3 23 -22 38 -63
28 -78 -3 -5 10 -14 28 -19 27 -8 45 -7 86 7 44 15 48 18 28 23 -13 4 -32 13
-43 21 l-20 15 20 15 c11 8 16 16 10 16 -5 0 -27 4 -48 9 l-37 9 25 -30 c28
-33 33 -68 11 -68 -21 0 -46 39 -46 72 0 25 -4 27 -56 34 -31 3 -94 4 -140 0
l-84 -7 0 29 c0 37 12 42 98 42 l66 0 -33 34 c-18 19 -50 42 -72 51 -31 15
-39 23 -39 45 0 15 3 29 6 33 10 9 71 -19 125 -58 l48 -35 -1 35 c-1 21 6 43
16 54 18 19 17 21 -15 40 -38 23 -45 21 -30 -7 13 -25 14 -52 1 -72 -8 -13
-11 -12 -24 5 -18 23 -20 58 -7 84 8 15 2 21 -34 39 -42 20 -44 23 -33 47 6
14 17 25 25 25 16 0 100 -41 156 -77 22 -13 41 -22 44 -19 9 9 -47 119 -89
173 -40 53 -40 53 -23 80 l18 27 40 -44 c22 -25 52 -67 68 -95 l29 -50 -2 38
c-1 44 17 71 32 47 19 -30 3 -109 -19 -95 -5 3 0 -23 10 -56 10 -33 19 -68 19
-77 1 -10 21 -34 45 -55 l45 -38 0 39 c0 21 5 53 11 71 9 26 9 34 -4 44 -22
16 -35 57 -28 85 l6 24 19 -21 c11 -12 19 -35 19 -52 0 -30 0 -30 29 15 15 25
28 51 28 56 0 12 -181 196 -224 229 -28 21 -28 22 -11 41 22 24 38 25 55 5 19
-23 27 -18 28 21 1 36 16 64 33 64 15 0 10 -64 -7 -89 -16 -22 -15 -24 43 -79
33 -32 75 -76 95 -99 l35 -43 28 30 28 29 -34 -5 c-42 -7 -84 19 -59 36 22 14
52 12 79 -6 28 -20 46 -6 36 26 -5 17 -9 19 -15 10 -12 -19 -64 5 -78 36 -10
21 -9 24 7 24 10 0 30 -10 45 -21 l27 -21 -15 37 c-9 20 -37 68 -62 107 -25
38 -44 71 -42 73 9 10 68 17 68 9 0 -5 11 -22 24 -39 l24 -30 -5 27 c-5 28 18
78 37 78 17 0 11 -67 -9 -91 -19 -23 -19 -24 16 -93 36 -71 37 -72 65 -21 11
20 11 20 -10 1 -21 -18 -21 -18 -27 7 -7 27 4 55 29 77 14 11 16 9 17 -11 1
-13 1 -30 0 -36 -6 -48 40 47 65 134 15 50 17 53 48 53 32 0 33 -2 50 -61z"/>
<path fill="#ffffff" stroke="none" d="M958 1796 c-4 -37 -18 -38 -37 -4 -9
16 -12 35 -7 54 l8 29 19 -24 c13 -15 19 -36 17 -55z"/>
<path fill="#ffffff" stroke="none" d="M1146 1785 c-9 -14 -21 -25 -26 -25
-17 0 -11 72 8 93 17 19 17 18 26 -12 7 -23 5 -37 -8 -56z"/>
<path fill="#ffffff" stroke="none" d="M900 1782 c0 -31 -35 -76 -51 -66 -21
12 16 94 43 94 4 0 8 -13 8 -28z"/>
<path fill="#ffffff" stroke="none" d="M1204 1788 c17 -25 22 -78 7 -78 -17 0
-41 43 -41 72 0 34 13 36 34 6z"/>
<path fill="#ffffff" stroke="none" d="M717 1753 c6 -17 -49 -22 -79 -7 -16 8
-28 19 -28 24 0 24 99 9 107 -17z"/>
<path fill="#ffffff" stroke="none" d="M1460 1770 c0 -14 -61 -37 -85 -32 -34
6 -31 20 6 36 31 13 79 11 79 -4z"/>
<path fill="#ffffff" stroke="none" d="M1498 1748 c14 -14 16 -84 3 -92 -13
-9 -39 52 -33 79 5 28 12 31 30 13z"/>
<path fill="#ffffff" stroke="none" d="M719 1719 c34 -12 40 -24 15 -33 -34
-13 -94 -3 -94 15 0 5 10 14 23 19 12 5 22 9 23 9 1 1 15 -4 33 -10z"/>
<path fill="#ffffff" stroke="none" d="M1423 1713 c15 -9 -23 -33 -52 -33 -26
0 -59 15 -51 23 27 23 74 28 103 10z"/>
<path fill="#ffffff" stroke="none" d="M706 1659 c15 -25 -64 -40 -96 -19 -13
9 -13 11 0 20 20 13 87 13 96 -1z"/>
<path fill="#ffffff" stroke="none" d="M1459 1656 c9 -11 8 -15 -5 -20 -24 -9
-63 -7 -86 5 -17 9 -18 13 -7 20 22 14 85 11 98 -5z"/>
<path fill="#ffffff" stroke="none" d="M480 1610 c13 -9 12 -12 -4 -25 -23
-17 -54 -19 -76 -5 -13 9 -12 12 4 25 23 17 54 19 76 5z"/>
<path fill="#ffffff" stroke="none" d="M1661 1610 c26 -15 24 -27 -8 -34 -26
-7 -83 10 -83 24 0 18 63 24 91 10z"/>
<path fill="#ffffff" stroke="none" d="M735 1590 c18 -19 17 -20 -6 -21 -54
-3 -89 10 -89 32 0 18 77 9 95 -11z"/>
<path fill="#ffffff" stroke="none" d="M1428 1598 c-7 -20 -51 -37 -81 -31
-27 5 -27 6 -11 24 20 22 98 28 92 7z"/>
<path fill="#ffffff" stroke="none" d="M500 1556 c0 -24 -34 -76 -51 -76 -17
0 -9 47 12 74 25 32 39 33 39 2z"/>
<path fill="#ffffff" stroke="none" d="M1602 1563 c20 -23 31 -70 18 -78 -16
-10 -50 33 -50 65 0 34 10 38 32 13z"/>
<path fill="#ffffff" stroke="none" d="M608 1507 c33 -26 -59 -38 -94 -13 -16
12 -16 15 -4 20 44 15 72 13 98 -7z"/>
<path fill="#ffffff" stroke="none" d="M1570 1510 c3 0 -4 -7 -14 -15 -34 -26
-127 -14 -94 12 22 17 42 20 73 11 16 -4 32 -8 35 -8z"/>
<path fill="#ffffff" stroke="none" d="M320 1460 c10 -25 10 -36 1 -58 -12
-26 -13 -26 -27 -7 -15 20 -18 53 -8 79 9 24 20 19 34 -14z"/>
<path fill="#ffffff" stroke="none" d="M1784 1463 c7 -26 -10 -83 -24 -83 -19
0 -25 46 -10 84 12 33 26 33 34 -1z"/>
<path fill="#ffffff" stroke="none" d="M1574 1464 c9 -23 7 -67 -3 -83 -12
-19 -31 16 -31 57 0 41 22 58 34 26z"/>
<path fill="#ffffff" stroke="none" d="M655 1444 c30 -19 24 -34 -13 -34 -32
0 -75 27 -67 41 9 14 53 11 80 -7z"/>
<path fill="#ffffff" stroke="none" d="M1485 1449 c10 -15 -25 -38 -57 -39
-36 0 -43 15 -16 34 26 18 64 21 73 5z"/>
<path fill="#ffffff" stroke="none" d="M393 1398 c10 -14 17 -36 15 -49 l-3
-24 -27 27 c-17 16 -28 38 -28 53 0 32 16 29 43 -7z"/>
<path fill="#ffffff" stroke="none" d="M1720 1405 c0 -15 -12 -37 -27 -53
l-28 -27 -3 29 c-2 19 4 36 19 52 29 31 39 30 39 -1z"/>
<path fill="#ffffff" stroke="none" d="M590 1394 c0 -8 -15 -30 -32 -47 -33
-32 -33 -32 -36 -9 -2 15 5 33 19 48 26 27 49 31 49 8z"/>
<path fill="#ffffff" stroke="none" d="M1529 1384 c21 -27 28 -64 12 -64 -17
0 -61 50 -61 70 0 28 25 25 49 -6z"/>
<path fill="#ffffff" stroke="none" d="M244 1298 c17 -24 22 -78 8 -78 -14 0
-40 34 -42 55 -5 50 9 60 34 23z"/>
<path fill="#ffffff" stroke="none" d="M601 1271 c2 -21 -1 -43 -7 -61 -5 -12
-8 -12 -20 4 -15 21 -18 63 -7 92 6 16 7 16 20 -2 7 -10 14 -25 14 -33z"/>
<path fill="#ffffff" stroke="none" d="M1510 1264 c0 -16 -6 -39 -14 -49 -13
-18 -14 -18 -26 4 -12 24 -6 66 12 89 15 18 28 -2 28 -44z"/>
<path fill="#ffffff" stroke="none" d="M1860 1291 c0 -34 -31 -77 -48 -67 -22
13 12 96 40 96 4 0 8 -13 8 -29z"/>
<path fill="#ffffff" stroke="none" d="M241 1125 c16 -9 27 -20 24 -25 -9 -15
-69 -12 -91 5 -16 13 -17 16 -4 25 21 14 36 12 71 -5z"/>
<path fill="#ffffff" stroke="none" d="M1900 1130 c24 -15 -17 -40 -60 -37
-40 2 -44 16 -9 34 29 15 49 16 69 3z"/>
<path fill="#ffffff" stroke="none" d="M233 971 c-6 -22 -29 -45 -55 -54 -25
-9 -24 27 2 53 27 27 60 27 53 1z"/>
<path fill="#ffffff" stroke="none" d="M323 958 c28 -29 30 -33 13 -36 -26 -5
-62 16 -75 44 -9 21 -8 24 10 24 11 0 35 -14 52 -32z"/>
<path fill="#ffffff" stroke="none" d="M1810 971 c-13 -26 -50 -51 -72 -51
-21 0 -22 9 -5 31 16 21 48 38 70 39 14 0 16 -4 7 -19z"/>
<path fill="#ffffff" stroke="none" d="M1887 968 c24 -22 31 -58 12 -58 -14 0
-69 55 -69 69 0 18 32 12 57 -11z"/>
<path fill="#ffffff" stroke="none" d="M290 764 c0 -18 -53 -74 -69 -74 -6 0
-11 8 -11 18 0 25 37 58 78 71 1 1 2 -6 2 -15z"/>
<path fill="#000000" stroke="none" d="M1010 1699 c-14 -29 -42 -79 -63 -110
l-37 -57 15 -63 c8 -35 15 -78 15 -96 0 -17 5 -35 10 -38 6 -3 10 3 10 14 0
22 36 61 57 61 22 0 15 -30 -15 -59 -15 -15 -32 -30 -38 -32 -7 -2 -14 -43
-18 -95 -6 -80 -4 -97 15 -145 12 -30 34 -99 49 -154 l27 -100 7 49 c4 27 23
92 43 145 19 53 37 113 40 134 l5 37 -39 0 c-29 0 -46 7 -63 25 l-23 25 34 0
c19 0 44 -7 55 -15 21 -14 21 -13 27 88 3 56 13 128 22 160 l15 58 -40 59
c-22 32 -50 82 -63 111 l-22 52 -25 -54z"/>
<path fill="#ffffff" stroke="none" d="M1046 1634 c-4 -13 -15 -28 -26 -34
-18 -10 -20 -8 -20 22 0 19 9 41 23 56 l22 24 3 -22 c2 -12 1 -33 -2 -46z"/>
<path fill="#ffffff" stroke="none" d="M1108 1583 c11 -10 23 -28 27 -40 9
-32 -18 -30 -50 2 -44 43 -23 77 23 38z"/>
<path fill="#ffffff" stroke="none" d="M979 1514 c-12 -13 -28 -24 -36 -24
-23 0 -14 31 19 63 33 32 33 32 36 9 2 -15 -5 -33 -19 -48z"/>
<path fill="#ffffff" stroke="none" d="M1070 1520 c0 -14 -6 -34 -13 -44 -13
-17 -14 -16 -26 13 -11 25 -11 37 0 62 12 29 13 30 26 13 7 -10 13 -30 13 -44z"/>
<path fill="#ffffff" stroke="none" d="M1121 1472 c5 -14 7 -33 3 -44 -6 -19
-7 -19 -25 -2 -13 11 -19 30 -19 57 0 35 2 38 16 26 9 -7 20 -24 25 -37z"/>
<path fill="#ffffff" stroke="none" d="M1010 1479 c0 -28 -17 -56 -40 -69 -18
-10 -20 -7 -20 20 0 29 29 70 50 70 6 0 10 -9 10 -21z"/>
<path fill="#ffffff" stroke="none" d="M1090 1377 c0 -44 -17 -46 -38 -5 -9
19 -9 33 -2 54 10 26 11 26 25 8 8 -10 15 -36 15 -57z"/>
<path fill="#ffffff" stroke="none" d="M1085 1305 c14 -13 25 -33 25 -44 0
-18 -3 -19 -26 -9 -21 10 -54 53 -54 73 0 14 34 2 55 -20z"/>
<path fill="#ffffff" stroke="none" d="M1020 1296 c0 -28 -19 -65 -40 -76 -18
-9 -20 -8 -20 13 0 25 34 77 51 77 5 0 9 -6 9 -14z"/>
<path fill="#ffffff" stroke="none" d="M1025 1173 c-13 -53 -65 -87 -65 -43 0
22 42 70 61 70 7 0 9 -9 4 -27z"/>
<path fill="#ffffff" stroke="none" d="M1088 1098 c-4 -41 -22 -46 -37 -10 -9
21 -9 36 -1 57 l11 28 15 -21 c8 -12 14 -36 12 -54z"/>
<path fill="#ffffff" stroke="none" d="M1044 1038 c5 -14 6 -38 2 -54 l-8 -29
-19 24 c-20 24 -24 47 -13 76 9 22 27 14 38 -17z"/>
<path fill="#000000" stroke="none" d="M816 1439 c-30 -35 -30 -37 -11 -63 14
-19 15 -18 15 17 0 43 13 47 36 12 11 -16 14 -34 9 -55 -7 -31 -7 -31 -28 -13
-19 17 -19 15 3 -22 36 -63 40 -63 40 -2 0 64 -18 157 -30 157 -4 0 -20 -14
-34 -31z"/>
<path fill="#000000" stroke="none" d="M1201 1434 c-10 -40 -18 -161 -10 -168
2 -3 15 14 28 37 16 28 19 37 8 29 -14 -12 -17 -10 -23 14 -7 29 13 78 31 75
6 -1 10 -17 10 -36 l0 -35 17 23 c23 29 23 28 -16 66 l-35 34 -10 -39z"/>
<path fill="#000000" stroke="none" d="M721 1309 c-19 -31 -46 -128 -38 -135
2 -2 10 7 17 21 23 43 35 30 32 -35 -1 -14 -11 -33 -23 -42 -19 -16 -20 -21
-8 -55 14 -45 49 -102 75 -124 21 -18 136 -80 140 -76 4 4 -24 143 -42 206
-12 43 -20 58 -30 54 -30 -11 -94 21 -94 48 0 17 47 9 74 -12 l26 -21 -9 25
c-18 47 -80 166 -91 172 -5 3 -19 -9 -29 -26z"/>
<path fill="#ffffff" stroke="none" d="M788 1243 l27 -28 -28 -3 c-30 -4 -52
9 -68 40 -16 30 37 23 69 -9z"/>
<path fill="#ffffff" stroke="none" d="M811 1100 c15 0 49 -39 49 -56 0 -22
-39 -9 -67 22 -27 29 -30 49 -7 40 9 -3 20 -6 25 -6z"/>
<path fill="#ffffff" stroke="none" d="M817 1028 c23 -18 14 -28 -25 -28 -26
0 -45 7 -56 19 -17 18 -17 19 1 23 25 6 65 -1 80 -14z"/>
<path fill="#ffffff" stroke="none" d="M871 969 c28 -15 14 -29 -30 -29 -37 0
-68 19 -54 33 10 11 62 8 84 -4z"/>
<path fill="#000000" stroke="none" d="M1278 1273 c-20 -38 -48 -102 -63 -143
-24 -68 -64 -227 -65 -257 0 -15 92 26 135 60 47 37 118 192 85 185 -22 -5
-44 45 -36 78 l8 29 18 -22 c26 -32 29 -29 19 18 -11 46 -45 119 -57 119 -4 0
-24 -30 -44 -67z"/>
<path fill="#ffffff" stroke="none" d="M1338 1234 c-14 -14 -78 -37 -78 -28 0
19 26 48 53 59 28 12 32 12 35 -2 2 -8 -2 -22 -10 -29z"/>
<path fill="#ffffff" stroke="none" d="M1320 1163 c0 -18 -41 -43 -72 -43 -20
0 -26 4 -22 15 13 33 94 57 94 28z"/>
<path fill="#ffffff" stroke="none" d="M1290 1092 c0 -22 -25 -47 -57 -56 -46
-14 -20 50 27 67 26 9 30 8 30 -11z"/>
<path fill="#ffffff" stroke="none" d="M1339 1034 c12 -12 -34 -34 -72 -34
-35 0 -38 2 -26 16 23 28 78 39 98 18z"/>
<path fill="#ffffff" stroke="none" d="M1284 971 c10 -16 -25 -35 -61 -34 -44
1 -53 11 -29 29 22 16 82 19 90 5z"/>
<path fill="#000000" stroke="none" d="M1725 1273 c-16 -8 -32 -17 -34 -19 -1
-1 4 -13 13 -26 17 -25 22 -88 6 -88 -19 0 -42 49 -36 75 4 14 3 25 -2 25 -28
0 -252 -207 -252 -233 0 -2 28 6 63 18 34 13 89 28 122 35 53 11 65 18 106 63
42 47 45 54 35 79 -7 20 -7 37 1 58 6 17 11 30 10 30 -1 -1 -15 -8 -32 -17z"/>
<path fill="#ffffff" stroke="none" d="M1659 1159 c9 -17 12 -36 7 -55 l-8
-29 -19 24 c-22 26 -27 95 -6 89 6 -3 18 -16 26 -29z"/>
<path fill="#ffffff" stroke="none" d="M1587 1097 c-11 -34 -26 -44 -38 -26
-12 18 -2 59 19 82 16 18 17 18 23 -5 3 -12 1 -35 -4 -51z"/>
<path fill="#000000" stroke="none" d="M392 1205 c0 -21 -8 -45 -18 -56 -17
-19 -17 -21 3 -47 15 -20 35 -30 79 -40 32 -7 89 -24 126 -36 37 -13 64 -18
61 -12 -32 55 -138 155 -220 207 l-31 20 0 -36z"/>
<path fill="#ffffff" stroke="none" d="M448 1162 c4 -26 -25 -85 -38 -77 -14
9 -12 62 2 85 16 24 32 21 36 -8z"/>
<path fill="#ffffff" stroke="none" d="M515 1127 c13 -31 10 -67 -7 -67 -14 0
-38 65 -31 88 7 27 21 19 38 -21z"/>
<path fill="#000000" stroke="none" d="M583 949 c9 -5 17 -17 17 -26 0 -10 6
-13 16 -9 9 3 21 6 27 6 14 1 -53 39 -68 39 -5 0 -2 -4 8 -10z"/>
<path fill="#000000" stroke="none" d="M1681 831 c-8 -5 -9 -11 -3 -15 5 -3
12 1 16 9 6 17 6 18 -13 6z"/>
</g>
</svg>
